HIERARCHY
ROOT Hips
{
	OFFSET 0.000000 0.000000 0.000000
	CHANNELS 6 Xposition Yposition Zposition Xrotation Yrotation Zrotation
	JOINT LeftUpLeg_virtual
	{
		OFFSET 0.000000 0.000000 0.000000
		CHANNELS 3 Xrotation Yrotation Zrotation
		JOINT LeftUpLeg
		{
			OFFSET 11.394100 -6.187798 -0.413800
			CHANNELS 3 Xrotation Yrotation Zrotation
			JOINT LeftLeg
			{
				OFFSET 0.430247 -32.302673 3.732800
				CHANNELS 3 Xrotation Yrotation Zrotation
				JOINT LeftFoot
				{
					OFFSET -0.430247 -48.264931 -6.423300
					CHANNELS 3 Xrotation Yrotation Zrotation
					JOINT LeftToeBase
					{
						OFFSET 4.230900 -16.068199 23.438400
						CHANNELS 3 Xrotation Yrotation Zrotation
						JOINT LeftToe_End
						{
							OFFSET 4.510700 0.695400 19.974600
							CHANNELS 3 Xrotation Yrotation Zrotation
							End Site
							{
								OFFSET 0 0 0
							}
						}
					}
				}
			}
		}
	}
	JOINT RightUpLeg_virtual
	{
		OFFSET 0.000000 0.000000 0.000000
		CHANNELS 3 Xrotation Yrotation Zrotation
		JOINT RightUpLeg
		{
			OFFSET -11.333700 -6.187798 -0.413800
			CHANNELS 3 Xrotation Yrotation Zrotation
			JOINT RightLeg
			{
				OFFSET -0.430392 -32.302628 3.733000
				CHANNELS 3 Xrotation Yrotation Zrotation
				JOINT RightFoot
				{
					OFFSET 0.430392 -48.264973 -6.423500
					CHANNELS 3 Xrotation Yrotation Zrotation
					JOINT RightToeBase
					{
						OFFSET -4.230900 -16.068199 23.438400
						CHANNELS 3 Xrotation Yrotation Zrotation
						JOINT RightToe_End
						{
							OFFSET -4.510700 0.695400 19.974600
							CHANNELS 3 Xrotation Yrotation Zrotation
							End Site
							{
								OFFSET 0 0 0
							}
						}
					}
				}
			}
		}
	}
	JOINT Spine_virtual
	{
		OFFSET 0.000000 0.000000 0.000000
		CHANNELS 3 Xrotation Yrotation Zrotation
		JOINT Spine
		{
			OFFSET -0.002400 12.777504 0.315300
			CHANNELS 3 Xrotation Yrotation Zrotation
			JOINT Spine1
			{
				OFFSET -0.002067 5.816869 0.032633
				CHANNELS 3 Xrotation Yrotation Zrotation
				JOINT Spine1_split
				{
					OFFSET -0.002067 5.816869 0.032633
					CHANNELS 3 Xrotation Yrotation Zrotation
					JOINT Spine2
					{
						OFFSET -0.002067 5.816869 0.032633
						CHANNELS 3 Xrotation Yrotation Zrotation
						JOINT Neck_virtual
						{
							OFFSET 0.000000 0.000000 0.000000
							CHANNELS 3 Xrotation Yrotation Zrotation
							JOINT Neck
							{
								OFFSET -0.003700 21.199493 -0.826900
								CHANNELS 3 Xrotation Yrotation Zrotation
								JOINT Head
								{
									OFFSET 0.000000 20.442200 4.834800
									CHANNELS 3 Xrotation Yrotation Zrotation
									JOINT HeadTop_End
									{
										OFFSET 0.000000 34.668396 4.968400
										CHANNELS 3 Xrotation Yrotation Zrotation
										End Site
										{
											OFFSET 0 0 0
										}
									}
								}
							}
						}
						JOINT LeftShoulder_virtual
						{
							OFFSET 0.000000 0.000000 0.000000
							CHANNELS 3 Xrotation Yrotation Zrotation
							JOINT LeftShoulder
							{
								OFFSET 3.288150 8.794197 -1.372250
								CHANNELS 3 Xrotation Yrotation Zrotation
								JOINT LeftShoulder_split
								{
									OFFSET 3.288150 8.794197 -1.372250
									CHANNELS 3 Xrotation Yrotation Zrotation
									JOINT LeftArm
									{
										OFFSET 11.953299 -2.279007 -0.146200
										CHANNELS 3 Xrotation Yrotation Zrotation
										JOINT LeftForeArm
										{
											OFFSET 18.448900 0.000000 0.000000
											CHANNELS 3 Xrotation Yrotation Zrotation
											JOINT LeftHand
											{
												OFFSET 29.527798 0.000000 0.000000
												CHANNELS 3 Xrotation Yrotation Zrotation
												End Site
												{
													OFFSET 0 0 0
												}
											}
										}
									}
								}
							}
						}
						JOINT RightShoulder_virtual
						{
							OFFSET 0.000000 0.000000 0.000000
							CHANNELS 3 Xrotation Yrotation Zrotation
							JOINT RightShoulder
							{
								OFFSET -3.249400 8.794197 -1.372250
								CHANNELS 3 Xrotation Yrotation Zrotation
								JOINT RightShoulder_split
								{
									OFFSET -3.249400 8.794197 -1.372250
									CHANNELS 3 Xrotation Yrotation Zrotation
									JOINT RightArm
									{
										OFFSET -11.953299 -2.279007 -0.146200
										CHANNELS 3 Xrotation Yrotation Zrotation
										JOINT RightForeArm
										{
											OFFSET -18.448900 0.000000 0.000000
											CHANNELS 3 Xrotation Yrotation Zrotation
											JOINT RightHand
											{
												OFFSET -29.527802 0.000000 0.000000
												CHANNELS 3 Xrotation Yrotation Zrotation
												End Site
												{
													OFFSET 0 0 0
												}
											}
										}
									}
								}
							}
						}
					}
				}
			}
		}
	}
}
MOTION
Frames: 7
Frame Time: 0.03333333
-1.204716 93.170631 0.113007 0.000000 0.000000 0.000000 -3.753011 -46.487705 -2.073839 -29.636406 3.363900 13.099548 32.416935 -11.672920 0.105771 -2.610889 0.228491 -7.125106 -0.523916 -2.740991 0.898098 0.000000 0.000000 0.000000 -4.695285 -45.659422 -2.199236 -5.379148 -11.603164 -17.070716 25.286252 -9.610628 -0.789992 -16.760914 -3.370125 17.762508 -1.952987 -0.131217 0.563188 0.000000 0.000000 0.000000 -2.562839 -43.641432 -1.403201 5.958439 5.482756 -1.044230 12.418974 9.403185 -3.088168 1.084949 -1.373961 0.689738 0.000000 0.000000 0.000000 12.418763 9.168048 -3.253826 -3.958268 -2.039786 0.423918 -4.852469 21.816910 -1.197942 0.000000 0.000000 0.000000 12.238961 9.361511 -3.086160 1.915076 0.011996 -7.086423 -2.805785 -3.233525 -0.673585 -14.919985 3.897513 -61.378587 8.774823 -46.659922 5.330192 0.000000 0.000000 0.000000 12.243190 9.335896 -3.256949 1.407728 9.807183 11.594773 -1.875989 3.190384 -0.528739 3.539405 -21.502506 61.394084 -5.964643 41.727241 7.972709 0.000000 0.000000 0.000000 
-1.203514 93.164764 0.168404 0.000000 0.000000 0.000000 -3.710186 -46.457601 -2.051271 -29.650285 3.315973 13.086283 32.361802 -11.662796 0.093117 -2.660579 0.236668 -7.094270 -0.475915 -2.747377 0.920679 0.000000 0.000000 0.000000 -4.613937 -45.630250 -2.170815 -5.377241 -11.507936 -17.080380 25.369891 -9.552620 -0.816578 -16.767257 -3.386671 17.800871 -1.951769 -0.151800 0.603496 0.000000 0.000000 0.000000 -2.474871 -43.637662 -1.375240 5.945834 5.482712 -1.036746 12.383513 9.374955 -3.102791 1.137779 -1.486668 0.686829 0.000000 0.000000 0.000000 12.414568 9.141473 -3.244895 -3.924622 -1.914524 0.349348 -4.847649 21.950935 -1.133078 0.000000 0.000000 0.000000 12.212305 9.331565 -3.095630 1.926642 -0.006610 -7.144826 -2.757342 -3.205740 -0.551062 -14.952039 3.818979 -61.359428 8.827019 -46.797840 5.363532 0.000000 0.000000 0.000000 12.211570 9.306451 -3.235706 1.428034 9.786467 11.587767 -1.977810 3.268704 -0.473492 3.565099 -21.468859 61.408680 -5.924357 41.608167 7.938233 0.000000 0.000000 0.000000 
-1.190374 93.167091 0.207367 0.000000 0.000000 0.000000 -3.646994 -46.488945 -2.013954 -29.647444 3.277497 13.057220 32.285160 -11.619493 0.107133 -2.742602 0.276302 -7.094874 -0.426558 -2.752807 0.926797 0.000000 0.000000 0.000000 -4.541942 -45.630585 -2.137182 -5.427286 -11.438523 -17.095542 25.484327 -9.475653 -0.871355 -16.758499 -3.406847 17.852334 -1.966856 -0.183571 0.619815 0.000000 0.000000 0.000000 -2.379786 -43.641343 -1.345078 5.958797 5.465894 -1.029917 12.352527 9.324627 -3.109758 1.144809 -1.540136 0.710988 0.000000 0.000000 0.000000 12.390833 9.091937 -3.241940 -3.873331 -1.763949 0.277976 -4.755958 22.301307 -1.117724 0.000000 0.000000 0.000000 12.190791 9.272088 -3.103261 1.939714 -0.032680 -7.182454 -2.721407 -3.164133 -0.448813 -15.006076 3.784712 -61.371599 8.881318 -46.952315 5.404563 0.000000 0.000000 0.000000 12.187621 9.255740 -3.212096 1.439609 9.760689 11.592747 -2.028858 3.303575 -0.428632 3.531821 -21.358369 61.406174 -5.848375 41.404156 7.861889 0.000000 0.000000 0.000000 
-1.177734 93.168137 0.215061 0.000000 0.000000 0.000000 -3.569500 -46.563391 -1.959475 -29.632438 3.252764 13.013620 32.209219 -11.553437 0.145543 -2.834154 0.335593 -7.130438 -0.394823 -2.755925 0.919075 0.000000 0.000000 0.000000 -4.481738 -45.653883 -2.093956 -5.544313 -11.409255 -17.117465 25.611671 -9.381348 -0.953159 -16.726558 -3.421187 17.940375 -1.980313 -0.222381 0.612850 0.000000 0.000000 0.000000 -2.295275 -43.650031 -1.312950 5.992178 5.432357 -1.026605 12.323698 9.249314 -3.107140 1.093640 -1.539726 0.753928 0.000000 0.000000 0.000000 12.355091 9.018228 -3.241893 -3.823006 -1.578492 0.205623 -4.609903 22.901310 -1.174780 0.000000 0.000000 0.000000 12.170865 9.181864 -3.104536 1.953029 -0.065949 -7.203424 -2.713221 -3.094096 -0.376880 -15.049786 3.815246 -61.407622 8.939785 -47.142157 5.458737 0.000000 0.000000 0.000000 12.162531 9.181066 -3.184765 1.444618 9.726760 11.588510 -2.047396 3.297972 -0.410877 3.454068 -21.207268 61.378341 -5.757622 41.152190 7.762081 0.000000 0.000000 0.000000 
-1.161243 93.166016 0.198315 0.000000 0.000000 0.000000 -3.493466 -46.659194 -1.894712 -29.619047 3.255004 12.960840 32.151992 -11.480214 0.195916 -2.901425 0.395341 -7.196865 -0.373169 -2.759229 0.904118 0.000000 0.000000 0.000000 -4.441851 -45.691442 -2.043654 -5.694393 -11.436610 -17.128074 25.713543 -9.280446 -1.063097 -16.687482 -3.423312 18.044733 -2.011999 -0.262323 0.584527 0.000000 0.000000 0.000000 -2.235990 -43.667233 -1.275871 6.038186 5.385528 -1.025738 12.299671 9.146795 -3.099242 1.041957 -1.502904 0.777798 0.000000 0.000000 0.000000 12.313513 8.916582 -3.242551 -3.799927 -1.343779 0.122226 -4.458022 23.772812 -1.324619 0.000000 0.000000 0.000000 12.153931 9.056570 -3.100058 1.965485 -0.102191 -7.214495 -2.705868 -3.022992 -0.359819 -15.071881 3.886172 -61.454975 9.021736 -47.385240 5.535892 0.000000 0.000000 0.000000 12.132234 9.080015 -3.155590 1.443463 9.689702 11.564896 -2.032009 3.265480 -0.409825 3.353197 -21.052424 61.337435 -5.681838 40.915739 7.664935 0.000000 0.000000 0.000000 
-1.141994 93.162056 0.181839 0.000000 0.000000 0.000000 -3.424278 -46.746460 -1.819704 -29.618559 3.290437 12.900133 32.119388 -11.412000 0.245063 -2.933743 0.432705 -7.280452 -0.352683 -2.765848 0.893596 0.000000 0.000000 0.000000 -4.415506 -45.726945 -1.983501 -5.835174 -11.523152 -17.109159 25.760560 -9.197218 -1.201848 -16.663297 -3.418862 18.131451 -2.080929 -0.298422 0.551294 0.000000 0.000000 0.000000 -2.210733 -43.694868 -1.227518 6.083089 5.329235 -1.025352 12.277420 9.015064 -3.092243 0.992075 -1.439740 0.777237 0.000000 0.000000 0.000000 12.269578 8.782214 -3.244803 -3.832015 -1.043508 0.014097 -4.328816 24.940540 -1.584498 0.000000 0.000000 0.000000 12.138967 8.897196 -3.093688 1.978054 -0.135833 -7.225138 -2.657320 -3.012033 -0.364255 -15.066263 3.961102 -61.503852 9.135856 -47.673453 5.636303 0.000000 0.000000 0.000000 12.093448 8.948447 -3.125835 1.436659 9.657590 11.510735 -1.970856 3.217817 -0.412530 3.237430 -20.921196 61.293762 -5.637065 40.742638 7.589564 0.000000 0.000000 0.000000 
-1.122649 93.158432 0.183445 0.000000 0.000000 0.000000 -3.364235 -46.807488 -1.725099 -29.625887 3.372926 12.834216 32.100205 -11.350828 0.283088 -2.962910 0.439968 -7.350025 -0.312645 -2.779256 0.894376 0.000000 0.000000 0.000000 -4.403055 -45.752797 -1.913674 -5.940483 -11.660846 -17.054619 25.751352 -9.163130 -1.363469 -16.655005 -3.406109 18.165394 -2.175194 -0.326952 0.533443 0.000000 0.000000 0.000000 -2.218593 -43.737403 -1.164851 6.128511 5.271414 -1.027288 12.254654 8.856966 -3.092294 0.961407 -1.378881 0.784744 0.000000 0.000000 0.000000 12.224000 8.618028 -3.250265 -3.942706 -0.665959 -0.120857 -4.237239 26.401041 -1.956535 0.000000 0.000000 0.000000 12.128670 8.708226 -3.087939 1.990626 -0.164222 -7.232283 -2.584728 -3.013468 -0.377386 -15.040447 3.988645 -61.540530 9.264123 -47.952682 5.734759 0.000000 0.000000 0.000000 12.046314 8.786825 -3.100397 1.425445 9.639590 11.429195 -1.910161 3.152449 -0.386784 3.115571 -20.819016 61.257091 -5.616839 40.626013 7.535914 0.000000 0.000000 0.000000 
